<mxfile host="65bd71144e">
    <diagram id="ZZsUXx6oRHrd-AbgRrwz" name="Page-1">
        <mxGraphModel dx="783" dy="537" grid="0" gridSize="10" guides="1" tooltips="1" connect="1" arrows="1" fold="1" page="1" pageScale="1" pageWidth="3300" pageHeight="4681" background="#ffffff" math="0" shadow="0">
            <root>
                <mxCell id="0"/>
                <mxCell id="1" parent="0"/>
                <mxCell id="5" style="edgeStyle=none;html=1;exitX=0.5;exitY=1;exitDx=0;exitDy=0;strokeColor=#000000;entryX=0.5;entryY=0;entryDx=0;entryDy=0;" parent="1" source="2" target="13" edge="1">
                    <mxGeometry relative="1" as="geometry">
                        <mxPoint x="1731" y="1157.5" as="targetPoint"/>
                    </mxGeometry>
                </mxCell>
                <mxCell id="2" value="" style="ellipse;html=1;" parent="1" vertex="1">
                    <mxGeometry x="1716" y="1039" width="30" height="30" as="geometry"/>
                </mxCell>
                <mxCell id="48" value="" style="edgeStyle=none;html=1;strokeColor=#000000;" parent="1" source="9" target="47" edge="1">
                    <mxGeometry relative="1" as="geometry"/>
                </mxCell>
                <mxCell id="9" value="Verify user" style="rounded=1;whiteSpace=wrap;html=1;arcSize=46;" parent="1" vertex="1">
                    <mxGeometry x="1671" y="1447" width="120" height="60" as="geometry"/>
                </mxCell>
                <mxCell id="10" value="View Stuff" style="rounded=1;whiteSpace=wrap;html=1;arcSize=46;" parent="1" vertex="1">
                    <mxGeometry x="1803" y="1323" width="120" height="60" as="geometry"/>
                </mxCell>
                <mxCell id="177" style="edgeStyle=none;html=1;exitX=0.5;exitY=1;exitDx=0;exitDy=0;entryX=0.5;entryY=0;entryDx=0;entryDy=0;strokeColor=#000000;fontColor=#FFFFFF;" edge="1" parent="1" source="11" target="9">
                    <mxGeometry relative="1" as="geometry"/>
                </mxCell>
                <mxCell id="11" value="Login" style="rounded=1;whiteSpace=wrap;html=1;arcSize=46;" parent="1" vertex="1">
                    <mxGeometry x="1671" y="1323" width="120" height="60" as="geometry"/>
                </mxCell>
                <mxCell id="12" value="Search&amp;amp;Filter Stuff" style="rounded=1;whiteSpace=wrap;html=1;arcSize=46;" parent="1" vertex="1">
                    <mxGeometry x="1545" y="1323" width="120" height="60" as="geometry"/>
                </mxCell>
                <mxCell id="13" value="Home Page" style="rounded=1;whiteSpace=wrap;html=1;arcSize=46;" parent="1" vertex="1">
                    <mxGeometry x="1671" y="1130" width="120" height="60" as="geometry"/>
                </mxCell>
                <mxCell id="95" style="edgeStyle=none;html=1;exitX=0.5;exitY=1;exitDx=0;exitDy=0;entryX=1;entryY=0.5;entryDx=0;entryDy=0;strokeColor=#000000;" edge="1" parent="1" target="93">
                    <mxGeometry relative="1" as="geometry">
                        <mxPoint x="1456" y="2786" as="sourcePoint"/>
                    </mxGeometry>
                </mxCell>
                <mxCell id="22" style="edgeStyle=none;html=1;exitX=0.5;exitY=1;exitDx=0;exitDy=0;strokeColor=#000000;entryX=0.5;entryY=0;entryDx=0;entryDy=0;" parent="1" source="47" target="52" edge="1">
                    <mxGeometry relative="1" as="geometry">
                        <mxPoint x="1741" y="1770.000000000001" as="sourcePoint"/>
                        <mxPoint x="1731" y="1837" as="targetPoint"/>
                    </mxGeometry>
                </mxCell>
                <mxCell id="23" style="edgeStyle=none;html=1;exitX=0;exitY=0.5;exitDx=0;exitDy=0;strokeColor=#000000;entryX=1;entryY=0.5;entryDx=0;entryDy=0;" parent="1" source="47" target="34" edge="1">
                    <mxGeometry relative="1" as="geometry">
                        <mxPoint x="1601" y="1673.000000000001" as="sourcePoint"/>
                        <mxPoint x="1591" y="1688" as="targetPoint"/>
                    </mxGeometry>
                </mxCell>
                <mxCell id="24" style="edgeStyle=none;html=1;exitX=0.5;exitY=1;exitDx=0;exitDy=0;strokeColor=#000000;" parent="1" source="13" target="11" edge="1">
                    <mxGeometry relative="1" as="geometry">
                        <mxPoint x="1731.7200000000003" y="1293.4500000000003" as="sourcePoint"/>
                        <mxPoint x="1732" y="1409" as="targetPoint"/>
                    </mxGeometry>
                </mxCell>
                <mxCell id="25" style="edgeStyle=none;html=1;exitX=0.25;exitY=1;exitDx=0;exitDy=0;strokeColor=#000000;entryX=0.5;entryY=0;entryDx=0;entryDy=0;" parent="1" source="13" target="12" edge="1">
                    <mxGeometry relative="1" as="geometry">
                        <mxPoint x="1713.0800000000004" y="1292.7600000000002" as="sourcePoint"/>
                        <mxPoint x="1604" y="1372" as="targetPoint"/>
                        <Array as="points">
                            <mxPoint x="1701" y="1260"/>
                            <mxPoint x="1605" y="1260"/>
                        </Array>
                    </mxGeometry>
                </mxCell>
                <mxCell id="29" style="edgeStyle=none;html=1;strokeColor=#000000;exitX=0.75;exitY=1;exitDx=0;exitDy=0;entryX=0.5;entryY=0;entryDx=0;entryDy=0;" parent="1" source="13" target="10" edge="1">
                    <mxGeometry relative="1" as="geometry">
                        <mxPoint x="1749.0000000000005" y="1294.0000000000005" as="sourcePoint"/>
                        <mxPoint x="1899" y="1390" as="targetPoint"/>
                        <Array as="points">
                            <mxPoint x="1763" y="1259"/>
                            <mxPoint x="1863" y="1258"/>
                        </Array>
                    </mxGeometry>
                </mxCell>
                <mxCell id="96" style="edgeStyle=none;html=1;exitX=0.5;exitY=1;exitDx=0;exitDy=0;entryX=0;entryY=0.5;entryDx=0;entryDy=0;strokeColor=#000000;" edge="1" parent="1" target="93">
                    <mxGeometry relative="1" as="geometry">
                        <mxPoint x="1275" y="2786" as="sourcePoint"/>
                    </mxGeometry>
                </mxCell>
                <mxCell id="108" style="edgeStyle=none;html=1;exitX=0;exitY=0.5;exitDx=0;exitDy=0;entryX=1;entryY=0.5;entryDx=0;entryDy=0;strokeColor=#000000;" edge="1" parent="1" source="32" target="107">
                    <mxGeometry relative="1" as="geometry"/>
                </mxCell>
                <mxCell id="32" value="Allow edit stuff" style="rounded=1;whiteSpace=wrap;html=1;arcSize=46;" parent="1" vertex="1">
                    <mxGeometry x="1340" y="2361" width="120" height="60" as="geometry"/>
                </mxCell>
                <mxCell id="33" value="View/Send Request" style="rounded=1;whiteSpace=wrap;html=1;arcSize=46;" parent="1" vertex="1">
                    <mxGeometry x="1575" y="2585" width="120" height="60" as="geometry"/>
                </mxCell>
                <mxCell id="34" value="Denied acess" style="rounded=1;whiteSpace=wrap;html=1;arcSize=46;" parent="1" vertex="1">
                    <mxGeometry x="1455" y="1609" width="120" height="60" as="geometry"/>
                </mxCell>
                <mxCell id="38" style="edgeStyle=none;html=1;exitX=0;exitY=0.5;exitDx=0;exitDy=0;strokeColor=#000000;entryX=1;entryY=0.5;entryDx=0;entryDy=0;" parent="1" edge="1" target="32" source="75">
                    <mxGeometry relative="1" as="geometry">
                        <mxPoint x="1641" y="2449.0000000000005" as="sourcePoint"/>
                        <mxPoint x="1638" y="2524" as="targetPoint"/>
                    </mxGeometry>
                </mxCell>
                <mxCell id="39" style="edgeStyle=none;html=1;exitX=0.5;exitY=1;exitDx=0;exitDy=0;strokeColor=#000000;entryX=0.5;entryY=0;entryDx=0;entryDy=0;" parent="1" source="52" target="63" edge="1">
                    <mxGeometry relative="1" as="geometry">
                        <mxPoint x="1709" y="1933.0000000000005" as="sourcePoint"/>
                        <mxPoint x="1731" y="2015" as="targetPoint"/>
                    </mxGeometry>
                </mxCell>
                <mxCell id="40" style="edgeStyle=none;html=1;strokeColor=#000000;startArrow=none;entryX=0.5;entryY=0;entryDx=0;entryDy=0;exitX=0.5;exitY=1;exitDx=0;exitDy=0;" parent="1" edge="1" target="33" source="75">
                    <mxGeometry relative="1" as="geometry">
                        <mxPoint x="1431" y="2213" as="sourcePoint"/>
                        <mxPoint x="1484" y="2389" as="targetPoint"/>
                    </mxGeometry>
                </mxCell>
                <mxCell id="47" value="" style="rhombus;whiteSpace=wrap;html=1;" parent="1" vertex="1">
                    <mxGeometry x="1689" y="1599" width="80" height="80" as="geometry"/>
                </mxCell>
                <mxCell id="49" value="&lt;font color=&quot;#000000&quot;&gt;[Check if gmail is fpt.edu.vn]&lt;/font&gt;" style="text;html=1;strokeColor=none;fillColor=none;align=center;verticalAlign=middle;whiteSpace=wrap;rounded=0;" parent="1" vertex="1">
                    <mxGeometry x="1674" y="1537" width="60" height="30" as="geometry"/>
                </mxCell>
                <mxCell id="50" value="[No]" style="text;html=1;strokeColor=none;fillColor=none;align=center;verticalAlign=middle;whiteSpace=wrap;rounded=0;fontColor=#000000;" parent="1" vertex="1">
                    <mxGeometry x="1614" y="1649" width="60" height="30" as="geometry"/>
                </mxCell>
                <mxCell id="51" value="[Yes]" style="text;html=1;strokeColor=none;fillColor=none;align=center;verticalAlign=middle;whiteSpace=wrap;rounded=0;fontColor=#000000;" parent="1" vertex="1">
                    <mxGeometry x="1505" y="2367" width="60" height="30" as="geometry"/>
                </mxCell>
                <mxCell id="54" value="" style="edgeStyle=none;html=1;strokeColor=#000000;fontColor=#000000;entryX=0;entryY=0.5;entryDx=0;entryDy=0;" parent="1" source="52" target="55" edge="1">
                    <mxGeometry relative="1" as="geometry">
                        <mxPoint x="1831" y="1843.9999999999995" as="targetPoint"/>
                    </mxGeometry>
                </mxCell>
                <mxCell id="52" value="" style="rhombus;whiteSpace=wrap;html=1;fontColor=#000000;" parent="1" vertex="1">
                    <mxGeometry x="1689" y="1758" width="80" height="80" as="geometry"/>
                </mxCell>
                <mxCell id="55" value="Allow acess to dashboard" style="rounded=1;whiteSpace=wrap;html=1;arcSize=46;" parent="1" vertex="1">
                    <mxGeometry x="1841" y="1768" width="120" height="60" as="geometry"/>
                </mxCell>
                <mxCell id="56" value="&lt;font color=&quot;#000000&quot;&gt;[Check if&amp;nbsp; user is admin or not ]&lt;/font&gt;" style="text;html=1;strokeColor=none;fillColor=none;align=center;verticalAlign=middle;whiteSpace=wrap;rounded=0;" parent="1" vertex="1">
                    <mxGeometry x="1731" y="1703" width="60" height="30" as="geometry"/>
                </mxCell>
                <mxCell id="57" value="[Yes]" style="text;html=1;strokeColor=none;fillColor=none;align=center;verticalAlign=middle;whiteSpace=wrap;rounded=0;fontColor=#000000;" parent="1" vertex="1">
                    <mxGeometry x="1769" y="1794" width="60" height="30" as="geometry"/>
                </mxCell>
                <mxCell id="58" value="[Yes]" style="text;html=1;strokeColor=none;fillColor=none;align=center;verticalAlign=middle;whiteSpace=wrap;rounded=0;fontColor=#000000;" parent="1" vertex="1">
                    <mxGeometry x="1674" y="1703" width="60" height="30" as="geometry"/>
                </mxCell>
                <mxCell id="62" value="[No]" style="text;html=1;strokeColor=none;fillColor=none;align=center;verticalAlign=middle;whiteSpace=wrap;rounded=0;fontColor=#000000;" parent="1" vertex="1">
                    <mxGeometry x="1684" y="1849" width="60" height="30" as="geometry"/>
                </mxCell>
                <mxCell id="63" value="Home Page" style="rounded=1;whiteSpace=wrap;html=1;arcSize=46;" parent="1" vertex="1">
                    <mxGeometry x="1669" y="1910" width="120" height="60" as="geometry"/>
                </mxCell>
                <mxCell id="64" value="View Stuff" style="rounded=1;whiteSpace=wrap;html=1;arcSize=46;" parent="1" vertex="1">
                    <mxGeometry x="1803" y="1323" width="120" height="60" as="geometry"/>
                </mxCell>
                <mxCell id="81" style="edgeStyle=none;html=1;exitX=0.5;exitY=1;exitDx=0;exitDy=0;strokeColor=#000000;" edge="1" parent="1" source="65" target="75">
                    <mxGeometry relative="1" as="geometry"/>
                </mxCell>
                <mxCell id="65" value="Market" style="rounded=1;whiteSpace=wrap;html=1;arcSize=46;" parent="1" vertex="1">
                    <mxGeometry x="1569" y="2124.5" width="120" height="60" as="geometry"/>
                </mxCell>
                <mxCell id="82" style="edgeStyle=none;html=1;exitX=0.5;exitY=1;exitDx=0;exitDy=0;entryX=0;entryY=0;entryDx=0;entryDy=0;strokeColor=#000000;" edge="1" parent="1" source="66" target="75">
                    <mxGeometry relative="1" as="geometry"/>
                </mxCell>
                <mxCell id="66" value="Exchange" style="rounded=1;whiteSpace=wrap;html=1;arcSize=46;" parent="1" vertex="1">
                    <mxGeometry x="1422" y="2124.5" width="120" height="60" as="geometry"/>
                </mxCell>
                <mxCell id="67" style="edgeStyle=none;html=1;exitX=0.5;exitY=1;exitDx=0;exitDy=0;strokeColor=#000000;" parent="1" source="63" target="65" edge="1">
                    <mxGeometry relative="1" as="geometry">
                        <mxPoint x="1731" y="1991.5" as="sourcePoint"/>
                        <mxPoint x="1732" y="2210.5" as="targetPoint"/>
                    </mxGeometry>
                </mxCell>
                <mxCell id="70" value="Manage Stuff" style="rounded=1;whiteSpace=wrap;html=1;arcSize=46;" parent="1" vertex="1">
                    <mxGeometry x="1893" y="2124.5" width="120" height="60" as="geometry"/>
                </mxCell>
                <mxCell id="80" style="edgeStyle=none;html=1;exitX=0.5;exitY=1;exitDx=0;exitDy=0;entryX=1;entryY=0;entryDx=0;entryDy=0;strokeColor=#000000;" edge="1" parent="1" source="71" target="75">
                    <mxGeometry relative="1" as="geometry"/>
                </mxCell>
                <mxCell id="71" value="Auction" style="rounded=1;whiteSpace=wrap;html=1;arcSize=46;" parent="1" vertex="1">
                    <mxGeometry x="1731" y="2124.5" width="120" height="60" as="geometry"/>
                </mxCell>
                <mxCell id="72" style="edgeStyle=none;html=1;exitX=0.5;exitY=1;exitDx=0;exitDy=0;strokeColor=#000000;" parent="1" source="63" target="71" edge="1">
                    <mxGeometry relative="1" as="geometry">
                        <mxPoint x="1739" y="1980" as="sourcePoint"/>
                        <mxPoint x="1742" y="2220.5" as="targetPoint"/>
                    </mxGeometry>
                </mxCell>
                <mxCell id="73" style="edgeStyle=none;html=1;exitX=0.5;exitY=1;exitDx=0;exitDy=0;strokeColor=#000000;entryX=0.5;entryY=0;entryDx=0;entryDy=0;" parent="1" source="63" target="66" edge="1">
                    <mxGeometry relative="1" as="geometry">
                        <mxPoint x="1739" y="1980" as="sourcePoint"/>
                        <mxPoint x="1655.2601626016262" y="2134.5" as="targetPoint"/>
                    </mxGeometry>
                </mxCell>
                <mxCell id="74" style="edgeStyle=none;html=1;exitX=0.5;exitY=1;exitDx=0;exitDy=0;strokeColor=#000000;entryX=0.5;entryY=0;entryDx=0;entryDy=0;" parent="1" source="63" target="70" edge="1">
                    <mxGeometry relative="1" as="geometry">
                        <mxPoint x="1749" y="1990" as="sourcePoint"/>
                        <mxPoint x="1665.2601626016262" y="2144.5" as="targetPoint"/>
                    </mxGeometry>
                </mxCell>
                <mxCell id="75" value="" style="rhombus;whiteSpace=wrap;html=1;" vertex="1" parent="1">
                    <mxGeometry x="1591" y="2351" width="80" height="80" as="geometry"/>
                </mxCell>
                <mxCell id="83" value="[Check if user is the stuff owner]" style="text;html=1;strokeColor=none;fillColor=none;align=center;verticalAlign=middle;whiteSpace=wrap;rounded=0;fontColor=#000000;" vertex="1" parent="1">
                    <mxGeometry x="1569" y="2214" width="60" height="30" as="geometry"/>
                </mxCell>
                <mxCell id="85" value="[No]" style="text;html=1;strokeColor=none;fillColor=none;align=center;verticalAlign=middle;whiteSpace=wrap;rounded=0;fontColor=#000000;" vertex="1" parent="1">
                    <mxGeometry x="1620" y="2487" width="60" height="30" as="geometry"/>
                </mxCell>
                <mxCell id="93" value="" style="rhombus;whiteSpace=wrap;html=1;" vertex="1" parent="1">
                    <mxGeometry x="1324" y="2817" width="80" height="80" as="geometry"/>
                </mxCell>
                <mxCell id="97" style="edgeStyle=none;html=1;exitX=1;exitY=0.5;exitDx=0;exitDy=0;strokeColor=#000000;entryX=0;entryY=0.5;entryDx=0;entryDy=0;" edge="1" parent="1" source="55" target="118">
                    <mxGeometry relative="1" as="geometry">
                        <mxPoint x="2191" y="1883.0000000000005" as="sourcePoint"/>
                        <mxPoint x="2075" y="1737" as="targetPoint"/>
                    </mxGeometry>
                </mxCell>
                <mxCell id="98" style="edgeStyle=none;html=1;exitX=1;exitY=0.5;exitDx=0;exitDy=0;strokeColor=#000000;entryX=0;entryY=0.5;entryDx=0;entryDy=0;" edge="1" parent="1" source="55" target="117">
                    <mxGeometry relative="1" as="geometry">
                        <mxPoint x="2107" y="1774.5000000000005" as="sourcePoint"/>
                        <mxPoint x="2070" y="1856" as="targetPoint"/>
                    </mxGeometry>
                </mxCell>
                <mxCell id="99" style="edgeStyle=none;html=1;strokeColor=#000000;exitX=0.5;exitY=1;exitDx=0;exitDy=0;entryX=0.5;entryY=0;entryDx=0;entryDy=0;" edge="1" parent="1" source="70" target="119">
                    <mxGeometry relative="1" as="geometry">
                        <mxPoint x="2053" y="2283" as="sourcePoint"/>
                        <mxPoint x="2000" y="2273" as="targetPoint"/>
                    </mxGeometry>
                </mxCell>
                <mxCell id="100" style="edgeStyle=none;html=1;exitX=0.5;exitY=1;exitDx=0;exitDy=0;strokeColor=#000000;entryX=0.5;entryY=0;entryDx=0;entryDy=0;" edge="1" parent="1" source="70" target="120">
                    <mxGeometry relative="1" as="geometry">
                        <mxPoint x="1934" y="2254.5000000000005" as="sourcePoint"/>
                        <mxPoint x="1893" y="2281" as="targetPoint"/>
                    </mxGeometry>
                </mxCell>
                <mxCell id="101" style="edgeStyle=none;html=1;exitX=0.5;exitY=1;exitDx=0;exitDy=0;strokeColor=#000000;entryX=0.5;entryY=0;entryDx=0;entryDy=0;" edge="1" parent="1" source="33" target="106">
                    <mxGeometry relative="1" as="geometry">
                        <mxPoint x="1466" y="2928.0000000000005" as="sourcePoint"/>
                        <mxPoint x="1466" y="3002.5" as="targetPoint"/>
                    </mxGeometry>
                </mxCell>
                <mxCell id="102" style="edgeStyle=none;html=1;exitX=0.5;exitY=1;exitDx=0;exitDy=0;strokeColor=#000000;entryX=0.5;entryY=0;entryDx=0;entryDy=0;" edge="1" parent="1" source="93" target="138">
                    <mxGeometry relative="1" as="geometry">
                        <mxPoint x="1729" y="3036.0000000000005" as="sourcePoint"/>
                        <mxPoint x="1364" y="2962" as="targetPoint"/>
                        <Array as="points"/>
                    </mxGeometry>
                </mxCell>
                <mxCell id="103" value="Create Stuff" style="rounded=1;whiteSpace=wrap;html=1;arcSize=46;" vertex="1" parent="1">
                    <mxGeometry x="2081" y="2124.5" width="120" height="60" as="geometry"/>
                </mxCell>
                <mxCell id="104" style="edgeStyle=none;html=1;strokeColor=#000000;entryX=0.5;entryY=0;entryDx=0;entryDy=0;exitX=0.5;exitY=1;exitDx=0;exitDy=0;" edge="1" parent="1" target="103" source="63">
                    <mxGeometry relative="1" as="geometry">
                        <mxPoint x="1798" y="1976" as="sourcePoint"/>
                        <mxPoint x="1845.2601626016262" y="2144.5" as="targetPoint"/>
                    </mxGeometry>
                </mxCell>
                <mxCell id="106" value="" style="ellipse;html=1;shape=endState;fillColor=strokeColor;strokeColor=#000000;" vertex="1" parent="1">
                    <mxGeometry x="1620" y="2824" width="30" height="30" as="geometry"/>
                </mxCell>
                <mxCell id="107" value="" style="shape=sumEllipse;perimeter=ellipsePerimeter;whiteSpace=wrap;html=1;backgroundOutline=1;strokeColor=#000000;gradientColor=default;fillColor=none;" vertex="1" parent="1">
                    <mxGeometry x="1215" y="2376" width="30" height="30" as="geometry"/>
                </mxCell>
                <mxCell id="110" value="" style="endArrow=none;dashed=1;html=1;strokeColor=#000000;exitX=0.5;exitY=0;exitDx=0;exitDy=0;entryX=1;entryY=1;entryDx=0;entryDy=0;entryPerimeter=0;" edge="1" parent="1" source="32" target="111">
                    <mxGeometry width="50" height="50" relative="1" as="geometry">
                        <mxPoint x="1260" y="2295" as="sourcePoint"/>
                        <mxPoint x="1306" y="2283" as="targetPoint"/>
                    </mxGeometry>
                </mxCell>
                <mxCell id="111" value="&lt;font color=&quot;#000000&quot;&gt;Redirect user to manage stuff&lt;/font&gt;" style="shape=note;whiteSpace=wrap;html=1;backgroundOutline=1;darkOpacity=0.05;strokeColor=#000000;fillColor=none;gradientColor=default;" vertex="1" parent="1">
                    <mxGeometry x="1220" y="2244" width="142" height="85" as="geometry"/>
                </mxCell>
                <mxCell id="175" style="edgeStyle=none;html=1;entryX=0;entryY=0.5;entryDx=0;entryDy=0;strokeColor=#000000;fontColor=#FFFFFF;" edge="1" parent="1" source="117" target="174">
                    <mxGeometry relative="1" as="geometry"/>
                </mxCell>
                <mxCell id="117" value="Manage update" style="rounded=1;whiteSpace=wrap;html=1;arcSize=46;" vertex="1" parent="1">
                    <mxGeometry x="2038" y="1810" width="120" height="60" as="geometry"/>
                </mxCell>
                <mxCell id="176" style="edgeStyle=none;html=1;exitX=1;exitY=0.5;exitDx=0;exitDy=0;entryX=0;entryY=0.5;entryDx=0;entryDy=0;strokeColor=#000000;fontColor=#FFFFFF;" edge="1" parent="1" source="118" target="173">
                    <mxGeometry relative="1" as="geometry"/>
                </mxCell>
                <mxCell id="118" value="Manage account" style="rounded=1;whiteSpace=wrap;html=1;arcSize=46;" vertex="1" parent="1">
                    <mxGeometry x="2038" y="1713" width="120" height="60" as="geometry"/>
                </mxCell>
                <mxCell id="141" style="edgeStyle=none;html=1;exitX=0.5;exitY=1;exitDx=0;exitDy=0;entryX=1;entryY=0;entryDx=0;entryDy=0;strokeColor=#000000;fontColor=#000000;" edge="1" parent="1" source="119" target="139">
                    <mxGeometry relative="1" as="geometry"/>
                </mxCell>
                <mxCell id="119" value="Delete stuff" style="rounded=1;whiteSpace=wrap;html=1;arcSize=46;" vertex="1" parent="1">
                    <mxGeometry x="1893" y="2298" width="120" height="60" as="geometry"/>
                </mxCell>
                <mxCell id="140" style="edgeStyle=none;html=1;exitX=0.5;exitY=1;exitDx=0;exitDy=0;entryX=0;entryY=0;entryDx=0;entryDy=0;strokeColor=#000000;fontColor=#000000;" edge="1" parent="1" source="120" target="139">
                    <mxGeometry relative="1" as="geometry"/>
                </mxCell>
                <mxCell id="120" value="Update stuff info" style="rounded=1;whiteSpace=wrap;html=1;arcSize=46;" vertex="1" parent="1">
                    <mxGeometry x="1754" y="2295" width="120" height="60" as="geometry"/>
                </mxCell>
                <mxCell id="121" style="edgeStyle=none;html=1;strokeColor=#000000;exitX=0;exitY=0.5;exitDx=0;exitDy=0;entryX=1;entryY=0;entryDx=0;entryDy=0;" edge="1" parent="1" source="33" target="127">
                    <mxGeometry relative="1" as="geometry">
                        <mxPoint x="1369" y="2506" as="sourcePoint"/>
                        <mxPoint x="1369" y="2583" as="targetPoint"/>
                    </mxGeometry>
                </mxCell>
                <mxCell id="122" style="edgeStyle=none;html=1;exitX=0.5;exitY=1;exitDx=0;exitDy=0;entryX=1;entryY=0.5;entryDx=0;entryDy=0;strokeColor=#000000;" edge="1" source="129" target="128" parent="1">
                    <mxGeometry relative="1" as="geometry"/>
                </mxCell>
                <mxCell id="123" style="edgeStyle=none;html=1;exitX=0.5;exitY=1;exitDx=0;exitDy=0;entryX=0;entryY=0.5;entryDx=0;entryDy=0;strokeColor=#000000;" edge="1" source="124" target="128" parent="1">
                    <mxGeometry relative="1" as="geometry"/>
                </mxCell>
                <mxCell id="124" value="View Stuf detail, comment,etc" style="rounded=1;whiteSpace=wrap;html=1;arcSize=46;" vertex="1" parent="1">
                    <mxGeometry x="1215" y="2726" width="120" height="60" as="geometry"/>
                </mxCell>
                <mxCell id="125" style="edgeStyle=none;html=1;exitX=1;exitY=0.5;exitDx=0;exitDy=0;strokeColor=#000000;entryX=0.5;entryY=0;entryDx=0;entryDy=0;" edge="1" source="127" target="129" parent="1">
                    <mxGeometry relative="1" as="geometry">
                        <mxPoint x="1469" y="2553.5000000000005" as="sourcePoint"/>
                        <mxPoint x="1447" y="2739" as="targetPoint"/>
                        <Array as="points"/>
                    </mxGeometry>
                </mxCell>
                <mxCell id="126" style="edgeStyle=none;html=1;exitX=0;exitY=0.5;exitDx=0;exitDy=0;strokeColor=#000000;entryX=0.5;entryY=0;entryDx=0;entryDy=0;" edge="1" source="127" target="124" parent="1">
                    <mxGeometry relative="1" as="geometry">
                        <mxPoint x="1229" y="2521.0000000000005" as="sourcePoint"/>
                        <mxPoint x="1293" y="2735" as="targetPoint"/>
                        <Array as="points"/>
                    </mxGeometry>
                </mxCell>
                <mxCell id="127" value="" style="rhombus;whiteSpace=wrap;html=1;" vertex="1" parent="1">
                    <mxGeometry x="1324" y="2593" width="80" height="79" as="geometry"/>
                </mxCell>
                <mxCell id="128" value="" style="rhombus;whiteSpace=wrap;html=1;" vertex="1" parent="1">
                    <mxGeometry x="1324" y="2817" width="80" height="80" as="geometry"/>
                </mxCell>
                <mxCell id="129" value="Send request to exchange, buy, bid stuff" style="rounded=1;whiteSpace=wrap;html=1;arcSize=46;" vertex="1" parent="1">
                    <mxGeometry x="1396" y="2726" width="120" height="60" as="geometry"/>
                </mxCell>
                <mxCell id="138" value="" style="shape=sumEllipse;perimeter=ellipsePerimeter;whiteSpace=wrap;html=1;backgroundOutline=1;strokeColor=#000000;gradientColor=default;fillColor=none;" vertex="1" parent="1">
                    <mxGeometry x="1349" y="2945" width="30" height="30" as="geometry"/>
                </mxCell>
                <mxCell id="142" style="edgeStyle=none;html=1;exitX=0.5;exitY=1;exitDx=0;exitDy=0;entryX=1;entryY=0.5;entryDx=0;entryDy=0;strokeColor=#000000;fontColor=#000000;" edge="1" parent="1" source="139" target="106">
                    <mxGeometry relative="1" as="geometry"/>
                </mxCell>
                <mxCell id="139" value="" style="rhombus;whiteSpace=wrap;html=1;strokeColor=#000000;fontColor=#000000;fillColor=default;gradientColor=none;" vertex="1" parent="1">
                    <mxGeometry x="1839" y="2418" width="84" height="80" as="geometry"/>
                </mxCell>
                <mxCell id="160" style="edgeStyle=none;html=1;strokeColor=#000000;fontColor=#000000;entryX=0.5;entryY=0;entryDx=0;entryDy=0;exitX=1;exitY=0.5;exitDx=0;exitDy=0;" edge="1" parent="1" source="139" target="163">
                    <mxGeometry relative="1" as="geometry">
                        <mxPoint x="1990" y="2552" as="targetPoint"/>
                        <mxPoint x="2439" y="2722" as="sourcePoint"/>
                        <Array as="points">
                            <mxPoint x="1987" y="2458"/>
                        </Array>
                    </mxGeometry>
                </mxCell>
                <mxCell id="152" style="edgeStyle=none;html=1;strokeColor=#000000;exitX=0.5;exitY=1;exitDx=0;exitDy=0;entryX=0.5;entryY=0;entryDx=0;entryDy=0;" edge="1" parent="1" target="155" source="103">
                    <mxGeometry relative="1" as="geometry">
                        <mxPoint x="2250" y="2190" as="sourcePoint"/>
                        <mxPoint x="2297" y="2278.5" as="targetPoint"/>
                    </mxGeometry>
                </mxCell>
                <mxCell id="153" style="edgeStyle=none;html=1;exitX=0.5;exitY=1;exitDx=0;exitDy=0;strokeColor=#000000;entryX=0.5;entryY=0;entryDx=0;entryDy=0;" edge="1" parent="1" target="157" source="103">
                    <mxGeometry relative="1" as="geometry">
                        <mxPoint x="2154" y="2184.5" as="sourcePoint"/>
                        <mxPoint x="2190" y="2286.5" as="targetPoint"/>
                    </mxGeometry>
                </mxCell>
                <mxCell id="154" style="edgeStyle=none;html=1;exitX=0.5;exitY=1;exitDx=0;exitDy=0;entryX=1;entryY=0;entryDx=0;entryDy=0;strokeColor=#000000;fontColor=#000000;" edge="1" parent="1" source="155" target="158">
                    <mxGeometry relative="1" as="geometry">
                        <mxPoint x="2199" y="2443.5" as="targetPoint"/>
                    </mxGeometry>
                </mxCell>
                <mxCell id="155" value="Send request if donate" style="rounded=1;whiteSpace=wrap;html=1;arcSize=46;" vertex="1" parent="1">
                    <mxGeometry x="2226" y="2298" width="120" height="60" as="geometry"/>
                </mxCell>
                <mxCell id="156" style="edgeStyle=none;html=1;exitX=0.5;exitY=1;exitDx=0;exitDy=0;strokeColor=#000000;fontColor=#000000;entryX=0.5;entryY=0;entryDx=0;entryDy=0;" edge="1" parent="1" source="157" target="158">
                    <mxGeometry relative="1" as="geometry">
                        <mxPoint x="2157" y="2444" as="targetPoint"/>
                    </mxGeometry>
                </mxCell>
                <mxCell id="157" value="View new stuff" style="rounded=1;whiteSpace=wrap;html=1;arcSize=46;" vertex="1" parent="1">
                    <mxGeometry x="2081" y="2295" width="120" height="60" as="geometry"/>
                </mxCell>
                <mxCell id="167" style="edgeStyle=none;html=1;exitX=0.5;exitY=1;exitDx=0;exitDy=0;strokeColor=#000000;fontColor=#FFFFFF;entryX=1;entryY=0.5;entryDx=0;entryDy=0;" edge="1" parent="1" source="158" target="106">
                    <mxGeometry relative="1" as="geometry">
                        <mxPoint x="2148" y="2823" as="targetPoint"/>
                        <Array as="points">
                            <mxPoint x="2148" y="2834"/>
                        </Array>
                    </mxGeometry>
                </mxCell>
                <mxCell id="158" value="" style="rhombus;whiteSpace=wrap;html=1;strokeColor=#000000;fontColor=#000000;fillColor=default;gradientColor=none;" vertex="1" parent="1">
                    <mxGeometry x="2102" y="2428" width="84" height="80" as="geometry"/>
                </mxCell>
                <mxCell id="159" value="[Check if the stuff is pending]" style="text;html=1;strokeColor=none;fillColor=none;align=center;verticalAlign=middle;whiteSpace=wrap;rounded=0;fontColor=#000000;" vertex="1" parent="1">
                    <mxGeometry x="1933" y="2376" width="60" height="30" as="geometry"/>
                </mxCell>
                <mxCell id="161" value="[Yes]" style="text;html=1;strokeColor=none;fillColor=none;align=center;verticalAlign=middle;whiteSpace=wrap;rounded=0;fontColor=#000000;" vertex="1" parent="1">
                    <mxGeometry x="1669" y="2460" width="60" height="30" as="geometry"/>
                </mxCell>
                <mxCell id="162" value="[Yes]" style="text;html=1;strokeColor=none;fillColor=none;align=center;verticalAlign=middle;whiteSpace=wrap;rounded=0;fontColor=#000000;" vertex="1" parent="1">
                    <mxGeometry x="1923" y="2435" width="60" height="30" as="geometry"/>
                </mxCell>
                <mxCell id="164" style="edgeStyle=none;html=1;exitX=0.5;exitY=1;exitDx=0;exitDy=0;strokeColor=#000000;fontColor=#FFFFFF;entryX=0.5;entryY=0;entryDx=0;entryDy=0;" edge="1" parent="1" source="163" target="165">
                    <mxGeometry relative="1" as="geometry">
                        <mxPoint x="1989" y="2637.571428571429" as="targetPoint"/>
                    </mxGeometry>
                </mxCell>
                <mxCell id="163" value="&lt;font color=&quot;#ffffff&quot;&gt;Send request to admin/moderator&lt;/font&gt;" style="rounded=1;whiteSpace=wrap;html=1;strokeColor=#000000;fontColor=#000000;fillColor=default;gradientColor=none;" vertex="1" parent="1">
                    <mxGeometry x="1929" y="2537" width="120" height="60" as="geometry"/>
                </mxCell>
                <mxCell id="165" value="" style="shape=sumEllipse;perimeter=ellipsePerimeter;whiteSpace=wrap;html=1;backgroundOutline=1;strokeColor=#000000;gradientColor=default;fillColor=none;" vertex="1" parent="1">
                    <mxGeometry x="1974" y="2642" width="30" height="30" as="geometry"/>
                </mxCell>
                <mxCell id="173" value="" style="shape=sumEllipse;perimeter=ellipsePerimeter;whiteSpace=wrap;html=1;backgroundOutline=1;strokeColor=#000000;gradientColor=default;fillColor=none;" vertex="1" parent="1">
                    <mxGeometry x="2220" y="1728" width="30" height="30" as="geometry"/>
                </mxCell>
                <mxCell id="174" value="" style="shape=sumEllipse;perimeter=ellipsePerimeter;whiteSpace=wrap;html=1;backgroundOutline=1;strokeColor=#000000;gradientColor=default;fillColor=none;" vertex="1" parent="1">
                    <mxGeometry x="2220" y="1825" width="30" height="30" as="geometry"/>
                </mxCell>
            </root>
        </mxGraphModel>
    </diagram>
</mxfile>